  <svg xmlns="http://www.w3.org/2000/svg">
    <symbol viewBox="0 0 25 24" id="vk-icon">
      <g clip-path="url(#clip0_60367_945)">
        <path fill-rule="evenodd" clip-rule="evenodd"
          d="M24.1331 5.948C24.2991 5.402 24.1331 5 23.3381 5H20.7131C20.0451 5 19.7371 5.347 19.5701 5.73C19.5701 5.73 18.2351 8.926 16.3441 11.002C15.7321 11.604 15.4541 11.795 15.1201 11.795C14.9531 11.795 14.7021 11.604 14.7021 11.057V5.948C14.7021 5.292 14.5181 5 13.9621 5H9.83411C9.41711 5 9.16611 5.304 9.16611 5.593C9.16611 6.214 10.1121 6.358 10.2091 8.106V11.904C10.2091 12.737 10.0561 12.888 9.72211 12.888C8.8321 12.888 6.66711 9.677 5.38211 6.003C5.13311 5.288 4.88111 5 4.21011 5H1.58311C0.833105 5 0.683105 5.347 0.683105 5.73C0.683105 6.412 1.57311 9.8 4.82811 14.281C6.99811 17.341 10.0531 19 12.8361 19C14.5051 19 14.7111 18.632 14.7111 17.997V15.684C14.7111 14.947 14.8691 14.8 15.3981 14.8C15.7881 14.8 16.4551 14.992 18.0131 16.467C19.7931 18.216 20.0861 19 21.0881 19H23.7131C24.4631 19 24.8391 18.632 24.6231 17.904C24.3851 17.18 23.5351 16.129 22.4081 14.882C21.7961 14.172 20.8781 13.407 20.5991 13.024C20.2101 12.533 20.3211 12.314 20.5991 11.877C20.5991 11.877 23.7991 7.451 24.1321 5.948H24.1331Z"
          fill="currentColor" />
      </g>
    </symbol>
    <symbol viewBox="0 0 25 24" id="tg-icon">
      <path
        d="M23.1223 4.62225L19.9535 19.566C19.7143 20.6205 19.091 20.883 18.2053 20.3865L13.3768 16.8285L11.0473 19.0695C10.7893 19.3275 10.574 19.5428 10.0768 19.5428L10.424 14.6258L19.3723 6.54C19.7615 6.1935 19.2875 6.00075 18.7678 6.348L7.70525 13.314L2.94275 11.823C1.907 11.4998 1.88825 10.7873 3.15875 10.29L21.7865 3.11325C22.649 2.79 23.4035 3.30525 23.1223 4.623V4.62225Z"
        fill="currentColor" />
    </symbol>
    <symbol viewBox="0 0 25 24" id="yt-icon">
      <path
        d="M19.8644 5H5.49641C3.98928 5 2.68311 6.3 2.68311 7.8V16.1C2.68311 17.7 3.98928 19 5.49641 19H19.8644C21.472 19 22.6777 17.7 22.6777 16.2V7.8C22.7781 6.3 21.472 5 19.8644 5ZM9.71637 15.4V8.6L16.5487 12L9.71637 15.4Z"
        fill="currentColor" />
    </symbol>
    <symbol viewBox="0 0 60 60" id="academy-logo">
            <path fill="currentColor"
              d="M30.2 5h-.2l-19.7 2.1v36.2l19.7 11.7 19.7-11.7v-36.2l-19.5-2.1zm17 36.8l-17.2 10.2-17.2-10.2v-14.8l17.1 10.2v1.8l-11.7-7v1.8l11.8 7.1v1.9l-11.8-7v1.8l11.8 7 11.9-7.1v-7.6l5.3-3.2v15.1zm-.1-17l-4.7 2.8-2.2 1.3-10.3-6.1v1.8l8.8 5.3h-.1l-.2.1-1.3.7-7.3-4.3v1.8l5.8 3.4-1.4.9-4.3-2.6v1.8l2.9 1.7-2.9 1.7-17-10.1 17-10.2 17.2 10zm.1-1.8l-17.3-10.2-17.1 10.2v-13.6l17.2-1.8 17.2 1.8v13.6z" />
    </symbol>
  </svg>
